<svg xmlns="http://www.w3.org/2000/svg" width="96" height="96" fill="none" viewBox="0 0 96 96">
  <path fill="#f08762" fill-rule="evenodd"
        d="M69.041 42.01v.003l-.002-.004zm-.187-.205v.002l-.004-.003zm-1.963-1.96c-.071-.105-.126-.231-.219-.311-.395-.34-.787-.688-1.212-.989-.69-.49-1.377-1.001-2.12-1.4-1.05-.564-1.201-.522-2.215.2-.132.093-.24.22-.361.33-.122.108-.236.228-.37.32-.648.442-1.194 1.009-1.816 1.483-.518.395-.996.843-1.5 1.253-.885.72-1.781 1.425-2.663 2.148-.858.701-1.697 1.425-2.556 2.123-1.188.967-2.391 1.913-3.577 2.881-.91.742-1.8 1.505-2.701 2.257-.5.417-1 .837-1.504 1.249-.884.72-1.775 1.432-2.657 2.155-.907.743-1.809 1.496-2.713 2.242a.4.4 0 0 1-.171.087c-.055.009-.137-.005-.17-.042-.031-.037-.047-.135-.021-.17a4 4 0 0 1 .372-.451c.896-.906 1.805-1.797 2.693-2.71 1.14-1.171 2.4-2.21 3.581-3.337q.071-.068.145-.13c.65-.545 1.316-1.07 1.947-1.636 1.094-.98 2.25-1.884 3.391-2.805a913 913 0 0 1 4.12-3.305c.891-.711 1.791-1.413 2.689-2.117.513-.403 1.031-.798 1.542-1.204.153-.12.291-.26.431-.397.138-.133.137-.321.001-.422-.13-.098-.257-.204-.398-.285-1.136-.643-2.285-1.262-3.507-1.728-1.158-.441-2.342-.808-3.559-1.045-.765-.15-1.532-.296-2.318-.318-1.631-.047-3.261-.026-4.892.004-.82.015-1.614.194-2.422.285a7.6 7.6 0 0 0-1.152.2c-.88.24-1.775.407-2.652.661-1.321.383-2.58.905-3.826 1.473-.924.421-1.771.972-2.603 1.548-.402.278-.83.53-1.189.857-.77.702-1.626 1.313-2.294 2.125-.02.025-.054.051-.082.051a.5.5 0 0 1-.175-.03c-.024-.009-.052-.055-.048-.08.014-.127.016-.265.065-.38.763-1.739 1.645-3.413 2.765-4.951.539-.74 1.14-1.429 1.746-2.111.629-.711 1.374-1.305 2.105-1.902 1.242-1.014 2.61-1.848 4.054-2.54 1.5-.719 3.05-1.317 4.668-1.729.914-.233 1.823-.481 2.761-.62.836-.126 1.663-.318 2.511-.354.098-.004.199-.007.291-.034.447-.125.904-.122 1.36-.121 1.27.003 2.536-.03 3.806.14 1.099.148 2.19.315 3.267.566 1.465.341 2.87.86 4.252 1.45 1.064.454.978.281.954-.71a2.3 2.3 0 0 0-.052-.388c-.078-.383-.156-.767-.245-1.148a1.9 1.9 0 0 1-.018-.875c.219-.924.515-1.815 1.023-2.633.433-.7.933-1.338 1.538-1.893.75-.69 1.576-1.254 2.528-1.639.64-.258 1.285-.462 1.968-.558.159-.022.314-.08.47-.127.253-.076.326-.138.255-.208-.068-.064-.136-.143-.219-.175-1.253-.467-2.534-.847-3.82-1.203-1.382-.38-2.786-.665-4.188-.953-.415-.085-.831-.172-1.25-.214-.81-.083-1.608-.277-2.426-.264a1 1 0 0 1-.29-.042c-.38-.114-.774-.106-1.164-.123-.423-.018-.855.008-1.268-.068-.52-.096-1.037-.11-1.558-.111a326 326 0 0 0-3.815.004c-.683.007-1.37-.021-2.045.14-.186.044-.39.022-.584.035-.584.04-1.17.007-1.752.134-.603.131-1.225.13-1.837.247-1.342.255-2.685.5-4.015.819-2.094.5-4.145 1.14-6.176 1.848-.215.076-.43.154-.638.245-1.942.858-3.823 1.83-5.582 3.025a31 31 0 0 0-4.229 3.471c-.233.228-.455.469-.698.687-.091.082-.226.116-.342.17l-.076-.06.055-.341-.001-.008c.104-.075.22-.135.308-.223q.72-.712 1.429-1.438c.088-.09.154-.203.23-.305l.182-.162c.51-.266.76-.483 1.166-1.013q.002.002.004 0c.36-.067.608-.279.773-.598v.003c.364-.06.613-.271.787-.586l.002.002c.09-.022.195-.023.268-.07q.67-.434 1.325-.887c.072-.05.112-.146.166-.22l.004.002c.152-.052.316-.083.456-.159.4-.217.787-.463 1.188-.68a38.6 38.6 0 0 1 5.813-2.557c2.007-.693 4.07-1.164 6.154-1.54.577-.104 1.159-.176 1.736-.271.803-.134 1.602-.29 2.419-.324.194-.007.388-.044.581-.066.292-.034.581-.078.873-.098.683-.045 1.37-.009 2.044-.16a89 89 0 0 1 5.38-.005c.675.154 1.363.108 2.045.163.81.064 1.618.162 2.428.247.033.003.063.018.096.023.545.093 1.088.2 1.636.273 1.229.164 2.438.427 3.642.703 2.16.496 4.286 1.119 6.35 1.945.089.035.188.075.28.07.09-.005.211-.04.257-.106.131-.185.24-.388.34-.592.563-1.144 1.11-2.295 1.68-3.435.642-1.285 1.261-2.583 2.008-3.814.626-1.033 1.233-2.076 1.98-3.032.4-.513.78-1.045 1.167-1.57.096-.13.031-.361-.12-.414-.245-.085-.495-.157-.742-.232-.937-.282-1.863-.6-2.81-.836-1.674-.417-3.359-.788-5.04-1.17a20 20 0 0 0-1.248-.23c-.611-.097-1.226-.168-1.835-.273-1.314-.227-2.626-.47-3.96-.55-.098-.007-.2-.004-.292-.03-.541-.154-1.097-.136-1.65-.166-.162-.01-.331.004-.487-.036-.609-.151-1.23-.124-1.848-.151-.358-.017-.72-.01-1.072-.07a6.4 6.4 0 0 0-1.07-.086q-2.445-.001-4.892.004c-.293 0-.592-.006-.877.051-.42.086-.842.088-1.265.106-.715.027-1.435-.005-2.14.168a1.5 1.5 0 0 1-.39.027c-.851-.018-1.676.242-2.526.247-1.05.217-2.12.325-3.175.53-2.176.424-4.32.962-6.43 1.647-1.8.584-3.549 1.298-5.264 2.095-.71.329-1.38.74-2.079 1.092-.992.5-1.914 1.118-2.847 1.716-1.263.81-2.459 1.716-3.632 2.65-1.02.814-2.02 1.652-2.946 2.573-.97.967-1.936 1.937-2.823 2.987q-1.14 1.348-2.158 2.783a36 36 0 0 0-3.156 5.408 39 39 0 0 0-1.481 3.625 31 31 0 0 0-1.032 3.572c-.167.73-.405 1.447-.444 2.204-.175.433-.15.9-.231 1.349-.118.64-.233 1.284-.286 1.932-.075.91-.016 1.83-.196 2.733.024.977-.095 1.96.115 2.932.04.189.024.39.032.587.03.75-.01 1.503.184 2.24.041.155.021.325.032.489s.014.327.041.488c.114.707.222 1.417.357 2.12q.25 1.296.538 2.584c.275 1.242.61 2.469.95 3.696.573 2.077 1.211 4.133 1.828 6.196.551 1.844 1.12 3.683 1.645 5.536.57 2.009 1.145 4.014 1.62 6.048.325 1.397.569 2.81.82 4.223.034.19.022.391.009.585a.48.48 0 0 1-.338.437c-.092.034-.187.055-.281.083l-.35-.262c-.02-.293-.012-.591-.065-.878a73 73 0 0 0-.472-2.299c-.475-2.17-1.147-4.284-1.813-6.4-.638-2.022-1.3-4.036-1.942-6.058-.602-1.897-1.181-3.8-1.69-5.725-.556-2.113-1.07-4.235-1.449-6.388-.068-.386-.145-.77-.199-1.157-.13-.936-.292-1.871-.363-2.812-.072-.975-.199-1.95-.216-2.926-.03-1.762-.116-3.525.124-5.283.092-.676.11-1.362.2-2.043.148-1.134.375-2.25.622-3.363.54-2.432 1.382-4.761 2.441-7.011a45.6 45.6 0 0 1 4.07-7.018c1.249-1.759 2.59-3.439 4.119-4.964.67-.668 1.349-1.327 2.024-1.989.116-.114.245-.217.287-.386l.001.003c.06-.012.13-.008.179-.038.365-.222.683-.53.992-.948v.002c.173-.002.306-.092.438-.192.729-.548 1.448-1.111 2.196-1.634 1.23-.858 2.523-1.615 3.83-2.355 1.367-.772 2.788-1.424 4.226-2.037a49 49 0 0 1 6.186-2.134 53 53 0 0 1 2.94-.718A84 84 0 0 1 44.56.678c.738-.124 1.486-.179 2.229-.272.904-.115 1.81-.223 2.724-.225a.8.8 0 0 0 .193-.024c.447-.121.906-.114 1.36-.12 1.794-.018 3.587-.046 5.38-.034 1.79.012 3.583-.036 5.37.177.838.1 1.686.096 2.53.197 1.099.13 2.198.243 3.292.412 1.48.227 2.957.467 4.415.81 1.49.35 2.985.672 4.448 1.129 1.118.35 2.246.67 3.364 1.021.31.096.602.246.897.382.16.073.217.276.128.41-.272.409-.61.765-.91 1.15-.881 1.134-1.71 2.303-2.41 3.561-.398.712-.782 1.432-1.194 2.137-.725 1.242-1.348 2.539-1.943 3.844-.474 1.04-.983 2.063-1.463 3.1-.055.118-.126.228-.188.343-.131.246-.349.377-.599.475-.22.086-.444.092-.673.093-.521.003-1.043 0-1.564.01-.228.004-.46.007-.683.048a8.4 8.4 0 0 0-2.987 1.17c-.605.383-1.178.822-1.632 1.39a9.7 9.7 0 0 0-1.236 1.99c-.369.79-.553 1.607-.416 2.473.106.677.216 1.353.22 2.04 0 .032.006.068.02.095.048.084.082.19.154.242.156.116.334.202.5.303.558.338 1.153.627 1.663 1.026 1.13.882 2.256 1.77 3.273 2.788.53.53 1.063 1.055 1.646 1.534.424.349.772.793 1.15 1.197.11.12.206.254.319.372.905.939 1.819 1.868 2.665 2.864.464.548.903 1.115 1.37 1.659.32.37.554.8.616 1.308.04.322.11.643.196.956.365 1.322.766 2.63 1.32 3.889.367.836.7 1.688 1.089 2.513.403.855.8 1.716 1.285 2.531.25.42.45.87.662 1.312.183.382.34.777.528 1.157.722 1.464 1.453 2.926 2.181 4.388l4.679 9.382c.219.438.428.878.585 1.346.16.482.154.964.102 1.452a.8.8 0 0 1-.139.36c-.135.182-.297.344-.458.504-.103.103-.243.069-.371.061a.4.4 0 0 0-.018-.147c.074-.518.081-1.044-.037-1.548-.171-.726-.416-1.432-.8-2.08-.03-.052-.092-.087-.139-.13a.4.4 0 0 0-.053-.154c.013-.116-.037-.196-.14-.244a.34.34 0 0 0-.052-.149q.013-.173-.143-.246a.35.35 0 0 0-.052-.147.23.23 0 0 0-.142-.249.3.3 0 0 0-.05-.144q.013-.174-.143-.252a.3.3 0 0 0-.047-.14.25.25 0 0 0-.146-.258l-.002-.001a.24.24 0 0 0-.046-.131c-.025-.127-.025-.265-.079-.376a459 459 0 0 0-1.847-3.773c-.041-.083-.127-.144-.192-.214a.4.4 0 0 0-.054-.152q.02-.17-.138-.227a1.09 1.09 0 0 0-.39-.806.3.3 0 0 0-.051-.145q.014-.176-.145-.252a.3.3 0 0 0-.048-.141q.012-.175-.147-.253a.3.3 0 0 0-.047-.14.245.245 0 0 0-.147-.254.3.3 0 0 0-.048-.138.25.25 0 0 0-.148-.255.27.27 0 0 0-.047-.138.25.25 0 0 0-.148-.255.3.3 0 0 0-.047-.138.25.25 0 0 0-.148-.255.3.3 0 0 0-.049-.137.25.25 0 0 0-.147-.255.27.27 0 0 0-.048-.137.25.25 0 0 0-.15-.254.3.3 0 0 0-.049-.138c.008-.113-.038-.191-.146-.229-.151-.546-.369-.967-.694-1.335-.02-.021-.055-.03-.085-.043L81 55.14c-.075-.4-.233-.75-.597-.975l.003.002c-.01-.283-.155-.476-.396-.606l-.146-.197c-.034-.09-.042-.205-.103-.27-.289-.304-.573-.618-.896-.884-.194-.159-.45-.253-.69-.342a3.4 3.4 0 0 0-.66-.153 1.5 1.5 0 0 0-.481-.008 13.1 13.1 0 0 0-3.41 1.075c-1.057.502-2.033 1.133-2.96 1.843-.36.275-.707.567-1.072.833-.093.067-.234.068-.353.096-.011.113-.083.164-.185.185.027-.092.069-.17.175-.184-.006-.388.21-.678.45-.938.376-.404.753-.808 1.226-1.108.356-.225.693-.481 1.05-.706q.457-.29.814-.69a.7.7 0 0 0 .178-.54 2.3 2.3 0 0 0-.082-.477 20 20 0 0 0-.376-1.108q-.95-2.505-1.91-5.006a75 75 0 0 0-.792-1.992c-.162-.388-.332-.78-.746-.98q-.024-.167-.187-.206c-.044-.116-.06-.259-.139-.342a55 55 0 0 0-1.48-1.48c-.084-.079-.228-.093-.344-.138m0 0 .002.003zm14.885 16.677-.005-.001zm2.15 4.32v.003l-.004-.004zm-4.733 5.918c.348.356.604.76.718 1.253.169.733.482 1.418.708 2.132q.591 1.865 1.194 3.726c.37 1.148.738 2.296 1.115 3.441.143.433.306.86.467 1.285.016.042.092.063.139.093.005-.031.023-.066.016-.094a43 43 0 0 0-.211-.851q-.571-2.174-1.144-4.347c-.522-1.986-1.054-3.969-1.56-5.959-.106-.416-.267-.798-.439-1.186-.24-.544-.68-.764-1.215-.863a2 2 0 0 0-.39-.021c-1.007.034-2.02-.071-3.019.143-.126.027-.26.02-.39.02-.845.004-1.695.08-2.528-.14-.853-.025-1.67-.26-2.492-.45-.792-.185-1.577-.4-2.359-.626-1.187-.344-2.391-.628-3.554-1.057-.149-.055-.318-.053-.478-.078l-.003.005c-.08-.168-.23-.201-.395-.208l-.21-.165c.09-.101.201-.163.336-.165.322-.004.644 0 .966-.006.29-.005.578-.018.867-.026l.355.028c.082.048.159.132.243.14.615.059 1.18.264 1.74.514.526.233 1.073.419 1.612.622.183.07.372.09.566.042l.34.055c.093.097.207.16.342.162.291.006.583.004.873.004l.353.019c.082.046.164.13.246.13q1.242.014 2.483-.003c.082 0 .164-.084.246-.13l.358-.013c.647.071 1.292.014 1.937-.037.087-.007.168-.086.252-.13l.356-.03 2.19-.022h.001a.27.27 0 0 0 .135.039q.074.155.244.161l.011.008c.015.11.073.173.19.169 0 0 .022.015.021.016.064.148.113.305.195.444.449.769.713 1.608.955 2.458.044.157.076.317.124.472.511 1.651 1.03 3.3 1.538 4.953q.43 1.403.844 2.812c.446 1.501.867 3.01 1.334 4.504.331 1.06.643 2.123.921 3.197.114.44.199.89.313 1.33.13.506.287 1.005.415 1.511a65 65 0 0 0 1.379 4.695c.392 1.177.816 2.342 1.37 3.456q.086.175.158.358c.07.175.006.422-.155.525a8 8 0 0 1-.758.444c-1.186.592-1.749.623-3.002.174-1.993-.714-3.988-1.426-5.95-2.228a90 90 0 0 1-4.392-1.91 78 78 0 0 1-6.395-3.385c-.42-.248-.84-.501-1.267-.739-.11-.06-.245-.073-.369-.108l-.002.002c-.055-.075-.094-.173-.166-.222q-.508-.344-1.033-.66c-.103-.062-.235-.076-.355-.11h-.005c-.11-.252-.309-.377-.579-.397l-.005.001-.211-.281-.201-.265-.342-.06a.6.6 0 0 0-.056-.138.4.4 0 0 0-.142-.044c.081-.092.11-.019.143.036.153.022.32.014.394.192.158.024.323.024.468.078.243.093.473.217.705.337 1.274.656 2.545 1.32 3.822 1.97 1.306.668 2.618 1.323 3.928 1.98q.262.132.532.25 1.56.695 3.125 1.385.892.397 1.79.783c.085.037.188.037.282.051.082.011.202-.11.179-.189-.036-.122-.064-.25-.124-.36q-.749-1.375-1.51-2.743c-.308-.554-.445-1.153-.475-1.78-.017-.391-.024-.784-.04-1.174-.01-.23.006-.464-.041-.684-.125-.58-.12-1.168-.149-1.754-.01-.195.004-.397-.04-.585-.136-.578-.132-1.166-.16-1.752-.01-.228-.042-.454-.065-.681-.026-.26-.064-.518-.076-.778-.038-.814-.01-1.632-.192-2.435-.02-.094-.01-.196-.02-.293-.086-.745-.161-1.49-.261-2.234-.1-.742-.223-1.48-.34-2.22-.107-.675-.23-1.349-.326-2.025-.14-1-.357-1.993-.28-3.013l.014-.018q.17-.01.192-.178l.008-.007c.397.044.748-.163 1.13-.211.669-.083 1.33-.221 1.993-.337m0 0h.001zM26.364 71.45l-.002-.002zm-.192-.202v.003l-.003-.003zm-.194-.197v.003l-.003-.004zm-.195-.198v.004l-.004-.004zm-.195-.196v.003l-.004-.004zm-.196-.197v.004l-.003-.005zm-.196-.196v.004l-.004-.004zm-.198-.194.001.003-.004-.004zm-.198-.194v.003l-.003-.003zm-.2-.192.001.002-.002-.002m-1.175-1.175-.002-.002zm-.183-.21.001.005-.005-.006q.003 0 .004.002m-.59-.78v.002l-.003-.004zm-.388-.592c.004-.24-.137-.427-.24-.625a12 12 0 0 1-.782-1.877 12.5 12.5 0 0 1-.57-2.647c-.012-.12-.086-.236-.131-.354l-.029-.372c.093-.477-.058-.885-.352-1.25l-.075-.315c.031-.152.02-.296-.1-.412q-.03-.195-.062-.39l.025-.343v.004l.055.007h.055l.002-.002q.078.104.158.207c.356.947.688 1.904.949 2.882.144.538.322 1.064.543 1.57.39.898.832 1.763 1.406 2.571.909 1.281 2.15 2.07 3.549 2.665.33.14.648.058.89-.213a8 8 0 0 0 .551-.685c.266-.372.507-.76.772-1.133.227-.319.47-.626.713-.932.033-.041.114-.052.175-.062.058-.008.103.17.063.257-.124.268-.247.534-.378.798-.261.527-.533 1.049-.79 1.577-.316.646-.567 1.32-.797 2-.229.68-.117 1.288.386 1.811q.1.108.203.212 1.08 1.066 2.164 2.13c.093.091.197.172.3.25.142.108.42.111.55-.018q.658-.654 1.297-1.33c.18-.188.338-.397.513-.59a1 1 0 0 1 .227-.183c.048-.028.136-.038.174-.011s.067.123.048.168c-.178.42-.368.835-.553 1.253a1.6 1.6 0 0 0-.078 1.058c.076.312.167.628.364.902.398.557.78 1.125 1.167 1.69a128 128 0 0 1 2.954 4.502c.726 1.166 1.4 2.351 1.912 3.633.45 1.13.718 2.302.952 3.487.042.217.01.456-.024.679-.025.165-.154.286-.314.348a.8.8 0 0 1-.283.065c-1.01-.004-2.022.005-3.032-.032-.66-.023-1.136-.544-1.185-1.215-.012-.163-.01-.327-.013-.49-.008-.392 0-.784-.128-1.165a1.3 1.3 0 0 1-.05-.386c-.011-.557-.103-1.101-.208-1.649a35 35 0 0 0-1.222-4.633c-.456-1.345-1.16-2.553-2.177-3.562-.858-.85-1.698-1.72-2.634-2.488a3 3 0 0 1-.485-.482c-.587-.747-1.292-1.384-1.94-2.074-.107-.114-.255-.19-.385-.283q-.027-.168-.192-.202a.23.23 0 0 0-.194-.197.23.23 0 0 0-.195-.198.23.23 0 0 0-.195-.196.23.23 0 0 0-.196-.197.23.23 0 0 0-.196-.196.23.23 0 0 0-.198-.194.226.226 0 0 0-.198-.194.224.224 0 0 0-.2-.192c-.374-.514-.64-.78-1.175-1.175a.24.24 0 0 0-.183-.21.24.24 0 0 0-.189-.207h.007a.68.68 0 0 0-.408-.573.68.68 0 0 0-.388-.592m0 0v.002l-.003-.003zm15.431-10.57-.044.07c.002-.016-.001-.038.009-.046a.1.1 0 0 1 .035-.023m0 0 .017-.024.01.012q-.013.007-.027.013m.032-.026-.005.013-.01-.011zm.197-.194.09-.113c.08.139-.02.112-.09.113m-.015.012v-.012h.015l-.007.008v.001zm-.182.182a.28.28 0 0 1 .182-.182c-.007.115-.074.17-.182.182M21.062 27.308l-.064.072c.006-.018.006-.043.017-.051a.2.2 0 0 1 .047-.02m1.009-1.18c.16-.065.218-.198.243-.355l-.077-.06c-.153.079-.21.213-.211.377zm-.599.58c.045-.333.207-.558.553-.618l.046.038c-.076.322-.234.559-.599.58m0 0h-.001v-.001zm-.19.19c.03-.096.087-.164.19-.19-.015.116-.072.184-.19.19m-.01.016-.002-.015h.012l-.002.01zm-.185.372c.005-.152.044-.287.184-.372.013.16-.03.294-.184.372m-.025.022.015-.017.01-.005v.014l-.005-.004.004.004zm7.84 47.661c-.027-.014-.061-.03-.06-.036q.026-.081.06.036m21.552 4.514v.002l-.005-.003zm-.395-.586v.003l-.002-.004zm-.98-1.372v.003l-.002-.004zm-.578-.791-.003-.002zm-.986-1.368v.003l-.002-.004zm-.581-.79v.002l-.003-.003zm-.979-1.373v.002l-.003-.003zm-12.33 18.834.001.001-.006-.003zm-2.557-13.33-.002-.003zm-.976-1.574v.002l-.004-.003zm-.384-.594-.003-.002zm-.6-.974v.004l-.003-.004zm-.19-.575c.09.022.188.031.264.077.11.066.216.151.298.25.52.626 1.093 1.205 1.562 1.876a22.6 22.6 0 0 1 2.979 6.03c.26.806.507 1.621.68 2.448.145.698.313 1.4.308 2.123-.003.227.02.459.068.68.108.487.114.968-.002 1.454a3 3 0 0 0-.047 1.07c.021.17.12.31.278.375.18.073.371.116.558.172 1.043.316 2.111.377 3.189.298.289-.022.576-.1.86-.173 1.544-.395 3.085-.798 4.597-1.312.65-.22 1.285-.467 1.9-.767.351-.172.716-.315 1.071-.477.18-.081.35-.176.435-.371l-.002-.008c.064-.006.135.006.19-.02a5.7 5.7 0 0 0 2.31-1.897c.839-1.164 1.3-2.468 1.26-3.924-.007-.228-.004-.457-.02-.684-.063-.832-.355-1.58-.836-2.257-.036-.05-.1-.08-.151-.12a.23.23 0 0 0-.052-.126q.002-.173-.161-.224c-.014-.274-.14-.474-.395-.586q-.017-.168-.18-.215l.008-.003a.64.64 0 0 0-.407-.575h.003a.625.625 0 0 0-.403-.579c-.013-.111-.07-.185-.181-.215h.007c-.023-.272-.153-.468-.405-.576-.054-.368-.267-.617-.582-.792h.003a.63.63 0 0 0-.407-.576q-.018-.168-.181-.215h.006c-.023-.272-.154-.468-.406-.574-.053-.367-.268-.616-.581-.793h.003a.64.64 0 0 0-.4-.58c-.053-.367-.264-.617-.572-.799l.002-.004c-.012-.279-.168-.467-.388-.613a.24.24 0 0 0-.052-.13q-.001-.175-.157-.253a.3.3 0 0 0-.045-.138.265.265 0 0 0-.145-.262.22.22 0 0 0-.034-.133c.025-.34-.15-.633-.245-.94-.192-.61-.175-1.226-.106-1.844.03-.262.138-.505.316-.705.034-.039.113-.04.172-.05.007-.001.032.052.032.08.003.293.014.587 0 .88-.038.773.162 1.485.505 2.17.322.644.741 1.222 1.155 1.81 1.241 1.758 2.56 3.457 3.848 5.18.351.469.71.937 1.017 1.436.745 1.215 1.253 2.51 1.158 3.977q-.007.147-.002.293c.028 1.185-.351 2.258-.973 3.236a8.1 8.1 0 0 1-3.043 2.84c-.805.43-1.63.825-2.452 1.222-.91.441-1.863.783-2.822 1.095-1.052.341-2.12.645-3.215.815-.704.11-1.403.291-2.126.282a3 3 0 0 0-.677.082c-.326.07-.642.056-.967-.012-.51-.106-1.033-.13-1.536-.281-.12-.036-.258-.014-.387-.018l-.002.007c-.04-.112-.12-.149-.232-.136a.5.5 0 0 0-.147-.057.29.29 0 0 0-.21-.198c-.275-.724-.242-1.467-.124-2.214.025-.161.086-.32.093-.48.053-1.466.133-2.93-.15-4.389a19.8 19.8 0 0 0-1.741-5.173c-.055-.11-.158-.198-.239-.296l.003.001c-.017-.32-.133-.588-.4-.779a.64.64 0 0 0-.38-.601h.003c-.008-.281-.159-.475-.385-.62a.26.26 0 0 0-.058-.13q.005-.171-.156-.222c-.016-.27-.135-.475-.384-.595-.01-.28-.155-.475-.385-.617a.3.3 0 0 0-.061-.137q.006-.169-.154-.219c-.01-.11-.062-.187-.171-.22l.01-.015h.001zm-.017-.021.015.008.002.013-.011-.003zm1.082-10.03-.021-.066.052.005z"/>
</svg>
