<svg xmlns="http://www.w3.org/2000/svg" fill="none" display="block" overflow="visible" preserveAspectRatio="none"
     viewBox="0 0 570 651">
  <path fill="currentColor" fill-rule="evenodd"
        d="M427.778 284.884q.005.007.004.015l-.02-.023zm-1.266-1.396q.002.007.004.014l-.032-.019zM413.189 270.2c-.485-.716-.852-1.571-1.485-2.11-2.685-2.302-5.339-4.666-8.223-6.705-4.69-3.319-9.344-6.79-14.386-9.495-7.132-3.827-8.152-3.542-15.034 1.351-.895.634-1.63 1.495-2.45 2.238-.825.74-1.603 1.55-2.509 2.173-4.401 3.001-8.106 6.841-12.327 10.058-3.513 2.681-6.753 5.714-10.18 8.501-5.999 4.884-12.08 9.663-18.067 14.559-5.819 4.759-11.513 9.663-17.344 14.403-8.059 6.555-16.223 12.97-24.27 19.534-6.171 5.033-12.216 10.203-18.329 15.303-3.396 2.833-6.784 5.674-10.208 8.469-5.995 4.884-12.04 9.714-18.024 14.614-6.159 5.041-12.275 10.145-18.415 15.205-.332.274-.75.528-1.16.587-.372.063-.927-.031-1.146-.282-.218-.25-.324-.911-.148-1.15.774-1.073 1.602-2.125 2.525-3.061 6.081-6.141 12.244-12.187 18.274-18.379 7.73-7.941 16.285-14.99 24.3-22.626q.481-.46.985-.884c4.409-3.691 8.926-7.26 13.21-11.092 7.421-6.645 15.265-12.774 23.011-19.025a6127 6127 0 0 1 27.95-22.406c6.054-4.826 12.162-9.585 18.251-14.36 3.482-2.728 6.999-5.409 10.466-8.16 1.04-.818 1.974-1.769 2.927-2.693.93-.904.926-2.18.004-2.865-.883-.661-1.743-1.385-2.7-1.929-7.711-4.36-15.504-8.56-23.797-11.718-7.863-2.994-15.894-5.483-24.152-7.092-5.194-1.01-10.395-2.004-15.73-2.153-11.068-.321-22.128-.18-33.191.028-5.57.102-10.959 1.311-16.442 1.929-2.626.298-5.276.662-7.816 1.358-5.964 1.632-12.041 2.76-17.993 4.486-8.965 2.594-17.508 6.136-25.961 9.984-6.269 2.857-12.022 6.59-17.665 10.5-2.728 1.887-5.632 3.597-8.066 5.812-5.229 4.76-11.033 8.9-15.57 14.411-.137.164-.368.344-.555.344-.399 0-.813-.07-1.188-.207-.16-.055-.352-.368-.329-.536.102-.865.11-1.801.446-2.576 5.174-11.796 11.162-23.146 18.763-33.58 3.654-5.017 7.738-9.687 11.845-14.317 4.268-4.817 9.325-8.845 14.284-12.892 8.43-6.876 17.708-12.535 27.509-17.228 10.185-4.873 20.702-8.931 31.676-11.722 6.206-1.585 12.373-3.264 18.739-4.211 5.671-.849 11.279-2.153 17.039-2.395.661-.028 1.345-.047 1.974-.227 3.029-.85 6.136-.834 9.231-.826 8.617.019 17.203-.204 25.824.955 7.453 1.002 14.855 2.133 22.167 3.835 9.939 2.313 19.478 5.836 28.85 9.832 7.222 3.076 6.64 1.906 6.476-4.814-.024-.881-.184-1.765-.356-2.63-.528-2.599-1.055-5.202-1.657-7.789-.461-1.98-.59-3.984-.125-5.933 1.485-6.262 3.494-12.309 6.941-17.855 2.942-4.747 6.335-9.072 10.438-12.837 5.088-4.673 10.697-8.505 17.157-11.111 4.334-1.75 8.719-3.135 13.35-3.785 1.078-.149 2.13-.544 3.189-.861 1.719-.517 2.216-.939 1.731-1.409-.457-.438-.918-.974-1.485-1.186-8.504-3.17-17.196-5.745-25.926-8.16-9.372-2.583-18.9-4.509-28.416-6.462-2.814-.579-5.64-1.166-8.485-1.456-5.494-.559-10.903-1.874-16.461-1.788a6.3 6.3 0 0 1-1.965-.282c-2.584-.775-5.249-.72-7.899-.834-2.872-.121-5.803.051-8.605-.462-3.521-.649-7.035-.747-10.568-.755-8.629-.027-17.262-.043-25.891.031-4.635.043-9.293-.148-13.874.944-1.266.301-2.642.148-3.966.238-3.963.274-7.942.051-11.889.912-4.088.889-8.312.885-12.463 1.675-9.106 1.73-18.219 3.394-27.243 5.55-14.21 3.393-28.131 7.73-41.911 12.536-1.461.513-2.915 1.041-4.33 1.663-13.174 5.816-25.938 12.411-37.877 20.513-10.274 6.974-19.802 14.868-28.693 23.537-1.587 1.546-3.092 3.178-4.737 4.654-.621.559-1.536.786-2.321 1.158l-.52-.411.375-2.313s-.004-.055-.008-.055c.704-.505 1.489-.912 2.095-1.51a810 810 0 0 0 9.692-9.75c.598-.61 1.044-1.377 1.559-2.07q.621-.55 1.235-1.1c3.467-1.8 5.159-3.272 7.918-6.869 0 0 .028.016.024.008 2.442-.462 4.123-1.898 5.248-4.062v.019c2.466-.403 4.155-1.839 5.335-3.972l.019.016c.61-.149 1.321-.157 1.818-.482a350 350 0 0 0 8.992-6.008c.489-.336.754-.994 1.126-1.495 0 0 .028.014.027.016 1.032-.352 2.142-.564 3.091-1.076 2.72-1.476 5.339-3.143 8.063-4.619a262 262 0 0 1 39.444-17.338c13.62-4.696 27.615-7.89 41.762-10.438 3.912-.704 7.859-1.193 11.779-1.843 5.448-.908 10.869-1.961 16.41-2.192 1.321-.05 2.634-.301 3.947-.45 1.978-.23 3.944-.528 5.925-.661 4.631-.306 9.297-.063 13.87-1.092 12.17-.376 24.34-.396 36.509-.032 4.573 1.045 9.247.732 13.87 1.104 5.503.438 10.986 1.1 16.481 1.675.219.024.426.121.648.16 3.701.627 7.387 1.359 11.103 1.852 8.336 1.111 16.543 2.892 24.711 4.767 14.663 3.362 29.088 7.585 43.087 13.189.606.239 1.278.509 1.907.474.606-.031 1.431-.266 1.743-.716.887-1.257 1.63-2.634 2.31-4.02 3.814-7.753 7.531-15.561 11.396-23.29 4.357-8.713 8.559-17.515 13.627-25.863 4.249-7.006 8.368-14.082 13.429-20.56 2.724-3.483 5.295-7.087 7.925-10.649.649-.88.211-2.45-.82-2.806-1.661-.58-3.354-1.068-5.034-1.573-6.355-1.914-12.639-4.067-19.068-5.671-11.353-2.826-22.788-5.343-34.199-7.934-2.799-.634-5.636-1.103-8.469-1.557-4.143-.658-8.317-1.14-12.448-1.851-8.918-1.543-17.821-3.194-26.876-3.734-.66-.043-1.348-.024-1.977-.204-3.674-1.045-7.445-.92-11.197-1.127-1.102-.067-2.247.027-3.306-.239-4.131-1.029-8.348-.841-12.537-1.029-2.431-.11-4.893-.067-7.273-.474-2.423-.41-4.831-.575-7.265-.579a9388 9388 0 0 0-33.196.024c-1.985.004-4.017-.04-5.948.348-2.853.58-5.713.599-8.582.716-4.854.188-9.743-.031-14.526 1.143-.845.211-1.763.196-2.642.18-5.78-.121-11.377 1.64-17.141 1.68-7.133 1.47-14.39 2.203-21.546 3.596-14.768 2.873-29.314 6.52-43.63 11.162-12.22 3.96-24.085 8.806-35.727 14.211-4.811 2.227-9.364 5.013-14.101 7.4-6.734 3.394-12.99 7.582-19.322 11.64-8.57 5.492-16.683 11.632-24.644 17.973-6.925 5.514-13.706 11.197-19.99 17.444-6.589 6.559-13.139 13.134-19.161 20.257a281 281 0 0 0-14.64 18.869c-8.219 11.592-15.316 23.835-21.416 36.676-3.807 8.011-7.066 16.238-10.052 24.578-2.837 7.922-5.124 16.027-7 24.227-1.137 4.951-2.747 9.812-3.013 14.943-1.188 2.935-1.016 6.101-1.57 9.146-.798 4.345-1.58 8.712-1.94 13.104-.511 6.168-.109 12.41-1.328 18.531.164 6.63-.649 13.296.778 19.886.277 1.28.164 2.646.215 3.977.203 5.084-.067 10.195 1.254 15.197.278 1.049.141 2.204.215 3.311.075 1.104.098 2.219.278 3.311.774 4.795 1.508 9.609 2.423 14.376 1.121 5.859 2.356 11.698 3.65 17.522 1.868 8.426 4.142 16.743 6.44 25.064 3.893 14.081 8.227 28.026 12.409 42.014 3.744 12.509 7.605 24.978 11.165 37.541 3.861 13.624 7.766 27.221 10.986 41.013 2.212 9.479 3.865 19.064 5.569 28.637.23 1.288.148 2.658.062 3.973-.093 1.448-.93 2.454-2.29 2.959-.625.23-1.274.375-1.91.563-.79-.591-1.58-1.186-2.37-1.773-.136-1.988-.085-4.012-.449-5.957-.965-5.213-2.067-10.406-3.2-15.588-3.225-14.712-7.781-29.052-12.303-43.396-4.326-13.718-8.824-27.377-13.178-41.084-4.084-12.864-8.016-25.772-11.463-38.824-3.779-14.329-7.269-28.72-9.836-43.322-.461-2.615-.981-5.221-1.349-7.843-.883-6.349-1.985-12.689-2.462-19.068-.492-6.615-1.352-13.229-1.47-19.847-.206-11.945-.785-23.898.841-35.823.625-4.583.754-9.237 1.36-13.851 1.005-7.695 2.54-15.264 4.22-22.81 3.667-16.489 9.38-32.285 16.563-47.541 7.836-16.661 16.962-32.582 27.623-47.591 8.469-11.926 17.575-23.319 27.943-33.659 4.545-4.532 9.156-9.002 13.737-13.49.785-.772 1.66-1.472 1.95-2.615l.005.015c.41-.078.882-.054 1.214-.258 2.478-1.503 4.635-3.593 6.734-6.426v.015c1.168-.015 2.071-.626 2.966-1.303 4.948-3.714 9.829-7.538 14.902-11.08 8.347-5.82 17.125-10.955 25.992-15.968 9.274-5.237 18.92-9.66 28.674-13.816 13.636-5.812 27.685-10.544 41.977-14.473a357 357 0 0 1 19.955-4.869c8.207-1.75 16.453-3.3 24.722-4.685 5.007-.837 10.087-1.213 15.125-1.847 6.139-.775 12.283-1.51 18.485-1.522.438 0 .891-.051 1.313-.165 3.029-.822 6.144-.775 9.231-.81 12.166-.121 24.336-.313 36.502-.235 12.15.086 24.312-.242 36.439 1.206 5.686.68 11.443.65 17.172 1.33 7.453.885 14.913 1.652 22.335 2.795 10.044 1.542 20.064 3.17 29.959 5.49 10.107 2.377 20.256 4.56 30.183 7.66 7.589 2.372 15.241 4.548 22.827 6.924 2.099.653 4.084 1.67 6.089 2.59 1.09.498 1.469 1.871.867 2.783-1.844 2.771-4.134 5.186-6.171 7.8-5.983 7.683-11.611 15.617-16.363 24.145-2.696 4.83-5.299 9.71-8.094 14.489-4.924 8.426-9.152 17.216-13.189 26.069-3.217 7.057-6.671 13.988-9.927 21.017-.371.803-.856 1.55-1.274 2.333-.891 1.663-2.368 2.552-4.064 3.217-1.489.583-3.014.626-4.569.634-3.537.016-7.077.004-10.614.067-1.544.027-3.119.047-4.631.325-7.25 1.354-14.054 3.988-20.272 7.929-4.103 2.599-7.992 5.581-11.075 9.424a66 66 0 0 0-8.387 13.495c-2.501 5.37-3.748 10.904-2.822 16.779.723 4.59 1.47 9.17 1.493 13.835 0 .211.043.458.141.638.32.575.555 1.287 1.039 1.644 1.063.786 2.267 1.369 3.4 2.054 3.78 2.29 7.817 4.251 11.279 6.955 7.664 5.984 15.312 12.004 22.214 18.908 3.591 3.596 7.21 7.158 11.165 10.402 2.877 2.364 5.237 5.378 7.805 8.122.75.81 1.395 1.722 2.161 2.516 6.147 6.368 12.346 12.669 18.087 19.428 3.146 3.711 6.128 7.558 9.301 11.245 2.161 2.512 3.756 5.424 4.178 8.872.265 2.18.742 4.36 1.328 6.485 2.478 8.959 5.198 17.835 8.95 26.368 2.493 5.671 4.752 11.451 7.394 17.044 2.736 5.796 5.428 11.632 8.723 17.162 1.7 2.845 3.056 5.902 4.494 8.896 1.239 2.591 2.306 5.272 3.58 7.847 4.901 9.93 9.856 19.839 14.8 29.753 10.583 21.209 21.17 42.414 31.749 63.627 1.486 2.966 2.908 5.952 3.967 9.126 1.091 3.269 1.051 6.537.696 9.848-.094.845-.438 1.765-.942 2.442-.918 1.229-2.02 2.329-3.107 3.417-.699.696-1.649.465-2.521.414q.031-.51-.121-1.002c.504-3.51.551-7.076-.254-10.496-1.161-4.92-2.822-9.707-5.424-14.098-.211-.356-.626-.599-.942-.888a2.5 2.5 0 0 0-.364-1.041c.086-.787-.25-1.331-.953-1.66a2.3 2.3 0 0 0-.352-1.006c.074-.786-.262-1.334-.969-1.671a2.34 2.34 0 0 0-.348-.994c.07-.79-.262-1.346-.965-1.687a2.1 2.1 0 0 0-.34-.978c.07-.791-.266-1.354-.973-1.71a2 2 0 0 0-.321-.955c.055-.799-.285-1.374-.985-1.742l-.015-.012a1.65 1.65 0 0 0-.313-.888c-.168-.857-.168-1.793-.535-2.544a3105 3105 0 0 0-12.538-25.593c-.277-.559-.859-.97-1.301-1.448a2.5 2.5 0 0 0-.367-1.033c.086-.759-.211-1.28-.934-1.534-.094-2.208-.981-4.027-2.65-5.468a2.13 2.13 0 0 0-.344-.986c.07-.798-.273-1.358-.981-1.706a1.95 1.95 0 0 0-.328-.959c.062-.795-.282-1.358-.993-1.711a1.9 1.9 0 0 0-.324-.951c.055-.798-.289-1.369-.997-1.722a1.87 1.87 0 0 0-.324-.939c.051-.802-.297-1.37-1.005-1.726a1.8 1.8 0 0 0-.32-.935c.051-.803-.297-1.374-1-1.734a1.9 1.9 0 0 0-.321-.932c.051-.802-.301-1.373-1.008-1.73a1.9 1.9 0 0 0-.328-.927c.05-.802-.29-1.374-1.001-1.734a1.83 1.83 0 0 0-.324-.928c.047-.802-.305-1.369-1.02-1.722a1.9 1.9 0 0 0-.329-.935c.051-.769-.258-1.297-.992-1.551-1.024-3.704-2.501-6.56-4.71-9.051-.132-.149-.375-.204-.574-.298 0 0 .023-.016.02-.016-.512-2.716-1.583-5.091-4.053-6.61l.019.008c-.066-1.914-1.051-3.225-2.688-4.11q-.493-.67-.985-1.334c-.231-.615-.289-1.386-.704-1.824-1.958-2.07-3.888-4.2-6.081-6-1.313-1.076-3.048-1.718-4.678-2.317-1.43-.528-2.966-.81-4.482-1.041-1.067-.164-2.208-.235-3.264-.051-8.035 1.394-15.753 3.785-23.135 7.288-7.176 3.405-13.796 7.682-20.088 12.496-2.443 1.867-4.795 3.848-7.277 5.648-.629.457-1.583.462-2.396.657-.074.762-.559 1.109-1.25 1.253.183-.627.465-1.158 1.184-1.253-.039-2.63 1.426-4.594 3.06-6.355 2.544-2.74 5.104-5.484 8.312-7.519 2.42-1.526 4.706-3.26 7.125-4.786a26 26 0 0 0 5.53-4.674c.938-1.044 1.309-2.305 1.204-3.663-.09-1.092-.239-2.199-.559-3.24-.786-2.521-1.614-5.037-2.548-7.511a8175 8175 0 0 0-12.967-33.948c-1.74-4.525-3.502-9.037-5.37-13.511-1.094-2.628-2.251-5.288-5.061-6.645-.113-.749-.524-1.227-1.266-1.396-.301-.784-.411-1.754-.946-2.315a376 376 0 0 0-10.048-10.035c-.563-.539-1.54-.637-2.329-.938m0 0 .012.019-.016-.02zm101.005 113.091v.005l-.032-.016zm14.589 29.296v.016l-.028-.024q.014.007.028.008m-32.117 40.132c2.36 2.411 4.099 5.15 4.873 8.497 1.145 4.966 3.271 9.616 4.803 14.457 2.666 8.435 5.386 16.849 8.102 25.264 2.509 7.788 5.01 15.573 7.57 23.338.965 2.935 2.071 5.827 3.165 8.712.11.286.622.423.942.63.039-.211.157-.446.11-.638-.461-1.929-.93-3.855-1.431-5.773-2.579-9.827-5.174-19.651-7.761-29.478-3.545-13.464-7.156-26.912-10.587-40.406-.719-2.822-1.81-5.413-2.978-8.047-1.634-3.687-4.612-5.178-8.246-5.851-.864-.161-1.767-.169-2.642-.141-6.835.231-13.71-.482-20.49.97-.856.184-1.763.133-2.65.137-5.733.024-11.498.544-17.149-.951-5.788-.168-11.333-1.757-16.914-3.052-5.37-1.257-10.7-2.713-16.004-4.247-8.058-2.329-16.23-4.254-24.12-7.162-1.009-.376-2.154-.364-3.24-.532 0 0-.02.027-.02.031-.543-1.139-1.567-1.362-2.685-1.409a123 123 0 0 0-1.418-1.119c.605-.685 1.36-1.1 2.274-1.116 2.189-.031 4.373-.008 6.558-.043 1.962-.031 3.92-.117 5.882-.172.801.062 1.606.121 2.407.184.555.329 1.079.896 1.653.951 4.17.399 8.004 1.792 11.81 3.483 3.565 1.585 7.277 2.842 10.935 4.223 1.239.47 2.525.611 3.838.286.77.121 1.536.242 2.306.368.637.657 1.407 1.088 2.321 1.103 1.978.04 3.955.024 5.929.028q1.19.066 2.392.125c.558.309 1.113.885 1.672.888 5.616.063 11.228.051 16.844-.023.559-.004 1.114-.575 1.673-.881l2.427-.093c4.389.485 8.77.093 13.143-.251.59-.047 1.145-.579 1.715-.885.802-.066 1.611-.133 2.416-.203q7.431-.073 14.862-.145h.004q.422.254.914.262c.34.697.884 1.073 1.658 1.096l.074.051c.101.752.496 1.174 1.289 1.147 0 0 .145.102.141.109.438 1.006.77 2.071 1.321 3.01 3.048 5.213 4.842 10.908 6.48 16.669.301 1.065.516 2.149.844 3.202 3.47 11.197 6.984 22.382 10.438 33.584 1.954 6.344 3.846 12.704 5.73 19.072 3.021 10.179 5.881 20.406 9.051 30.539 2.243 7.186 4.357 14.399 6.249 21.682.774 2.991 1.348 6.032 2.118 9.026.883 3.428 1.954 6.81 2.818 10.242 2.704 10.732 5.846 21.334 9.356 31.835 2.665 7.984 5.538 15.882 9.293 23.436.395.794.751 1.604 1.079 2.426.473 1.19.043 2.865-1.051 3.566-1.673 1.068-3.365 2.121-5.143 3.005-8.051 4.016-11.869 4.227-20.373 1.182-13.526-4.841-27.06-9.667-40.371-15.107-10.028-4.102-20.006-8.324-29.803-12.954-14.804-6.998-29.299-14.603-43.4-22.951-2.853-1.687-5.702-3.401-8.597-5.014-.743-.41-1.661-.497-2.502-.731l-.015.015c-.372-.512-.633-1.174-1.122-1.511a155 155 0 0 0-7.015-4.477c-.699-.415-1.594-.509-2.403-.747 0 0-.039.004-.039.007-.751-1.71-2.095-2.559-3.924-2.692 0 0-.039.004-.039.008-.481-.634-.958-1.276-1.431-1.91q-.681-.899-1.364-1.797l-2.317-.407v.004a3.7 3.7 0 0 0-.383-.939 2.6 2.6 0 0 0-.961-.298c.551-.622.738-.125.969.247 1.035.149 2.173.09 2.673 1.299 1.071.161 2.192.161 3.173.533 1.649.626 3.213 1.471 4.784 2.281 8.648 4.45 17.27 8.947 25.934 13.366 8.863 4.52 17.766 8.962 26.657 13.424a86 86 0 0 0 3.607 1.695c7.062 3.135 14.132 6.27 21.206 9.389 4.041 1.789 8.085 3.569 12.146 5.307.582.251 1.278.251 1.919.348.555.079 1.368-.747 1.211-1.279-.242-.826-.433-1.703-.84-2.446a2363 2363 0 0 0-10.247-18.599c-2.091-3.757-3.021-7.82-3.22-12.07-.121-2.653-.168-5.315-.274-7.964-.062-1.55.039-3.143-.281-4.638-.844-3.93-.809-7.918-1.008-11.89-.067-1.327.023-2.693-.274-3.969-.918-3.922-.895-7.906-1.086-11.882-.071-1.542-.286-3.08-.438-4.619-.18-1.757-.438-3.51-.52-5.275-.254-5.519-.062-11.069-1.297-16.513-.141-.638-.067-1.326-.141-1.984-.579-5.049-1.091-10.109-1.771-15.146-.676-5.033-1.512-10.043-2.301-15.057-.727-4.579-1.564-9.146-2.212-13.733-.958-6.779-2.427-13.515-1.908-20.43l.102-.122c.762-.05 1.196-.446 1.301-1.209 0 0 .047-.051.051-.051 2.697.302 5.077-1.103 7.676-1.428 4.533-.564 9.016-1.499 13.518-2.282m0 0h.008zm-358.479 31.792.001.004-.016-.016zm-1.304-1.366.003.019-.023-.023c.006 0 .013.004.02.004m-1.321-1.339.003.02-.023-.024c.007 0 .013.004.02.004m-1.322-1.338.004.023-.027-.027q.012.002.023.004m-1.321-1.335.004.024-.031-.028q.014.002.027.004m-1.329-1.334.005.027-.028-.031c.008 0 .015.004.023.004m-1.333-1.327.005.027-.027-.031c.007 0 .015.004.022.004m-1.34-1.319.005.023-.028-.027q.011.002.023.004m-1.348-1.311.004.019-.023-.023q.01.002.019.004m-1.359-1.308q.006.008.011.016l-.016-.016zm-7.97-7.964.001.004-.016-.016zm-1.239-1.421.005.031-.031-.039q.012.004.026.008m-4.006-5.291.001.011-.023-.023zm-2.633-4.016c.027-1.624-.928-2.896-1.626-4.238a82.5 82.5 0 0 1-5.307-12.728c-1.888-5.863-3.287-11.808-3.873-17.949-.074-.822-.582-1.604-.887-2.403-.066-.841-.125-1.683-.191-2.524.625-3.229-.4-5.996-2.396-8.477-.168-.717-.332-1.421-.504-2.134.21-1.033.133-2.007-.68-2.794q-.207-1.325-.418-2.646c.054-.771.113-1.546.168-2.324 0 0 .003.023 0 .027l.37.047h.372l.016-.012q.534.704 1.075 1.401c2.415 6.427 4.67 12.912 6.436 19.546.977 3.647 2.189 7.217 3.685 10.649 2.654 6.086 5.648 11.949 9.54 17.432 6.167 8.689 14.585 14.043 24.082 18.07 2.247.951 4.396.396 6.038-1.444a54 54 0 0 0 3.744-4.642c1.801-2.524 3.443-5.158 5.241-7.683 1.539-2.164 3.185-4.25 4.834-6.32.227-.282.774-.356 1.192-.423.387-.055.695 1.159.422 1.746-.84 1.812-1.673 3.62-2.56 5.408-1.774 3.574-3.619 7.112-5.37 10.693-2.137 4.383-3.841 8.947-5.401 13.569-1.555 4.603-.793 8.728 2.615 12.278.461.481.91.97 1.383 1.432 4.889 4.818 9.782 9.644 14.683 14.45.633.614 1.333 1.166 2.036 1.698.962.724 2.849.748 3.729-.125a477 477 0 0 0 8.804-9.017c1.22-1.28 2.291-2.693 3.479-4.008a6.5 6.5 0 0 1 1.539-1.241c.325-.184.927-.258 1.181-.074.262.188.457.838.328 1.139-1.211 2.849-2.501 5.667-3.756 8.497-1.031 2.328-1.117 4.794-.527 7.174.52 2.121 1.133 4.262 2.47 6.121 2.704 3.777 5.299 7.628 7.921 11.463 6.871 10.051 13.597 20.192 20.041 30.528 4.932 7.906 9.509 15.941 12.975 24.633 3.052 7.66 4.873 15.613 6.46 23.644.289 1.471.074 3.095-.16 4.606-.172 1.12-1.048 1.941-2.13 2.36-.61.235-1.278.446-1.919.442-6.859-.027-13.725.032-20.58-.215-4.471-.16-7.707-3.694-8.039-8.242-.078-1.104-.062-2.215-.086-3.323-.055-2.658 0-5.319-.871-7.898-.278-.818-.325-1.746-.34-2.622-.075-3.777-.7-7.464-1.407-11.178a237 237 0 0 0-8.297-31.42c-3.095-9.123-7.863-17.311-14.773-24.156-5.819-5.765-11.517-11.655-17.868-16.868-1.192-.979-2.348-2.059-3.294-3.268-3.986-5.069-8.766-9.386-13.163-14.067-.726-.771-1.735-1.283-2.611-1.921-.125-.756-.556-1.218-1.304-1.366q-.208-1.116-1.321-1.339c-.14-.743-.577-1.19-1.322-1.338q-.209-1.117-1.321-1.335-.223-1.113-1.329-1.334c-.149-.744-.593-1.182-1.333-1.327-.149-.744-.597-1.178-1.34-1.319-.148-.748-.601-1.178-1.348-1.311-.148-.752-.606-1.186-1.359-1.308-2.531-3.479-4.339-5.283-7.97-7.964-.109-.744-.519-1.225-1.239-1.421-.124-.743-.541-1.225-1.281-1.409l.047.008c-.214-1.808-1.113-3.119-2.772-3.89-.147-1.824-.989-3.186-2.633-4.016m0 0v.012l-.02-.02q.01.007.02.008m104.713-71.672-.304.469c.019-.11-.004-.259.062-.314a.9.9 0 0 1 .242-.155m0 0 .11-.169v.004l.074.078q-.09.043-.184.087m.214-.179q-.016.043-.03.088l-.07-.078zm1.34-1.321c.2-.257.405-.514.604-.763.542.939-.127.761-.604.763m-.107.081.004-.077.003-.004.004.003q.046-.003.096-.003l-.047.06.002.003-.004.001v.002l-.002-.002zm-1.233 1.24c.215-.607.605-1.04 1.233-1.24-.045.784-.499 1.156-1.233 1.24M102.206 185.177q-.22.241-.434.484c.039-.117.039-.285.113-.344a1 1 0 0 1 .321-.14m6.847-8.001c1.082-.442 1.481-1.342 1.649-2.411-.004-.008-.52-.411-.52-.411-1.039.54-1.422 1.448-1.438 2.564 0 0 .313.258.309.258m-4.063 3.925c.302-2.254 1.404-3.777 3.75-4.183l.313.258.004.004c-.519 2.177-1.588 3.781-4.067 3.921m-.007.011.001-.007-.003-.003h.003v-.004.004l.006-.001-.001.005.003.003zm-1.28 1.286c.194-.653.587-1.118 1.28-1.286-.094.778-.484 1.245-1.28 1.286m-.077.104-.009-.101v-.004l.003.004q.042 0 .083-.003l-.02.07zm-1.253 2.525c.036-1.033.305-1.945 1.253-2.525.084 1.093-.204 1.996-1.253 2.525m-.167.15.105-.115-.004-.004.066-.031-.003.094-.027-.027.027.031a3 3 0 0 1-.164.052m53.196 323.2c-.181-.094-.411-.204-.402-.243.106-.371.259-.281.402.243m146.249 30.61.001.015-.032-.023c.011.004.021.004.031.008m-2.678-3.973.002.02-.02-.028q.009.004.018.008m-6.648-9.303.002.02-.019-.028c.005.004.011.004.017.008m-3.926-5.366v.004l-.023-.015zm-6.689-9.275.003.019-.02-.027q.009.004.017.008m-3.946-5.354.001.011-.019-.019q.009.004.018.008m-6.64-9.311.002.008-.024-.02zm-83.663 127.711.004.011-.043-.019q.02.007.039.008m-17.356-90.397v.008l-.015-.02zm-6.625-10.669.001.015-.027-.023q.013.004.026.008m-2.606-4.024q.001 0 0 0m0-.007v.007l-.019-.015q.01.007.019.008m-4.07-6.599.002.023-.02-.027q.009.005.018.004m-1.292-3.902c.609.153 1.277.211 1.794.524.743.45 1.466 1.026 2.021 1.695 3.536 4.243 7.417 8.168 10.598 12.724 8.805 12.622 15.504 26.273 20.217 40.891 1.763 5.464 3.443 10.99 4.612 16.598.984 4.732 2.126 9.491 2.09 14.399a20.5 20.5 0 0 0 .465 4.607c.731 3.307.774 6.567-.015 9.859-.575 2.395-.629 4.825-.321 7.256.145 1.158.817 2.105 1.892 2.544 1.215.497 2.517.79 3.783 1.17 7.077 2.141 14.327 2.552 21.639 2.016 1.962-.145 3.912-.677 5.831-1.171 10.481-2.677 20.94-5.412 31.202-8.896 4.405-1.495 8.715-3.166 12.893-5.205 2.38-1.162 4.854-2.133 7.265-3.229 1.216-.552 2.376-1.197 2.951-2.52l-.016-.051c.438-.039.919.039 1.298-.133 6.378-2.877 11.614-7.253 15.667-12.869 5.694-7.894 8.825-16.735 8.547-26.61-.043-1.546-.019-3.099-.133-4.638-.422-5.639-2.403-10.716-5.67-15.303-.243-.344-.68-.544-1.028-.814a1.56 1.56 0 0 0-.352-.857c.004-.778-.346-1.291-1.091-1.518-.097-1.859-.952-3.213-2.678-3.973-.083-.755-.47-1.256-1.218-1.46l.047-.019c-.148-1.847-1.047-3.166-2.759-3.902h.02c-.109-1.863-1.014-3.186-2.738-3.922-.083-.755-.474-1.256-1.225-1.456l.047-.008c-.156-1.839-1.036-3.166-2.748-3.902-.369-2.493-1.811-4.183-3.947-5.369h.02c-.141-1.859-1.042-3.182-2.762-3.906-.09-.756-.485-1.257-1.232-1.456l.047-.008c-.156-1.84-1.045-3.166-2.761-3.89-.359-2.49-1.815-4.176-3.942-5.374h.024c-.137-1.855-1.013-3.182-2.722-3.937-.35-2.486-1.787-4.18-3.875-5.413l.015-.027c-.086-1.891-1.145-3.167-2.638-4.161a1.65 1.65 0 0 0-.347-.884c0-.795-.372-1.358-1.071-1.711a1.87 1.87 0 0 0-.301-.939c.047-.802-.301-1.385-.985-1.777a1.48 1.48 0 0 0-.234-.896c.171-2.313-1.009-4.297-1.661-6.38-1.302-4.137-1.185-8.309-.716-12.504a8.56 8.56 0 0 1 2.142-4.779c.231-.262.766-.266 1.169-.34.043-.008.215.352.215.544.019 1.988.097 3.984 0 5.968-.258 5.245 1.102 10.066 3.427 14.708 2.188 4.372 5.03 8.294 7.84 12.282 8.422 11.921 17.371 23.439 26.11 35.122 2.384 3.182 4.822 6.356 6.897 9.741 5.061 8.243 8.504 17.022 7.863 26.967-.043.661-.027 1.33-.015 1.992.187 8.035-2.384 15.31-6.601 21.944-5.19 8.168-12.092 14.681-20.65 19.256-5.46 2.92-11.056 5.593-16.637 8.29-6.179 2.99-12.647 5.307-19.154 7.42-7.136 2.317-14.385 4.38-21.811 5.526-4.783.744-9.524 1.977-14.429 1.918-1.531-.019-3.091.231-4.592.552-2.215.474-4.357.38-6.565-.078-3.455-.724-7.011-.885-10.419-1.91-.813-.243-1.751-.094-2.63-.122 0 0-.016.043-.016.047-.262-.755-.817-1.005-1.567-.919a3.4 3.4 0 0 0-1.001-.388c-.253-.689-.706-1.158-1.426-1.338-1.868-4.916-1.641-9.953-.844-15.018.172-1.091.59-2.164.633-3.248.363-9.945.907-19.87-1.02-29.768-2.376-12.247-6.206-23.953-11.81-35.08-.375-.751-1.071-1.346-1.622-2.007l.019.007c-.116-2.168-.902-3.988-2.712-5.283-.042-1.883-.882-3.253-2.579-4.078h.019c-.05-1.906-1.074-3.218-2.614-4.2a1.77 1.77 0 0 0-.391-.888c.019-.767-.331-1.272-1.06-1.503-.105-1.836-.916-3.217-2.606-4.031-.065-1.902-1.053-3.221-2.614-4.188a1.96 1.96 0 0 0-.411-.928q.04-1.143-1.045-1.483c-.068-.744-.424-1.268-1.163-1.495l.071-.102h.007c-.067-.767-.139-1.534-.207-2.305m-.11-.141c.036.02.07.035.1.055l.002-.004v.004l.008.086q-.038-.007-.075-.02l-.003.004zm7.336-68.022-.14-.442.355.035z"
        clip-rule="evenodd"/>
</svg>
